<svg width="24" height="24" viewBox="0 0 24 24" fill="none" xmlns="http://www.w3.org/2000/svg">
  <path
    d="M19.14 12.936c.04-.305.06-.616.06-.936s-.02-.631-.06-.936l2.03-1.58a.5.5 0 00.12-.63l-1.92-3.32a.5.5 0 00-.6-.22l-2.39.96a7.048 7.048 0 00-1.62-.936l-.36-2.54a.5.5 0 00-.5-.42h-3.84a.5.5 0 00-.5.42l-.36 2.54a7.048 7.048 0 00-1.62.936l-2.39-.96a.5.5 0 00-.6.22l-1.92 3.32a.5.5 0 00.12.63l2.03 1.58c-.04.305-.06.616-.06.936s.02.631.06.936l-2.03 1.58a.5.5 0 00-.12.63l1.92 3.32c.14.24.42.34.6.22l2.39-.96c.5.38 1.04.7 1.62.936l.36 2.54c.05.29.3.42.5.42h3.84c.25 0 .46-.17.5-.42l.36-2.54c.58-.236 1.12-.556 1.62-.936l2.39.96c.18.12.46.02.6-.22l1.92-3.32a.5.5 0 00-.12-.63l-2.03-1.58zM12 15.5a3.5 3.5 0 110-7 3.5 3.5 0 010 7z"
    fill="black"
  />
</svg>
